<svg width="123" height="71" viewBox="0 0 123 71" fill="none" xmlns="http://www.w3.org/2000/svg">
<path d="M97.8499 14.17C97.8299 14.36 97.7699 14.54 97.6799 14.72C97.5799 15.14 97.5299 15.62 97.5299 16.15C97.5299 16.2 97.5399 16.25 97.5399 16.3V51.04C97.9799 52.13 98.5199 52.95 99.1699 53.46C99.7699 53.94 100.51 54.17 101.41 54.13C101.47 54.12 101.54 54.12 101.6 54.12H111.56C111.58 54.12 111.61 54.12 111.64 54.12C113.19 54.2 114.31 53.78 115.06 52.92C115.91 51.94 116.4 50.37 116.57 48.26V48.23L119.6 16.89C119.6 16.84 119.6 16.79 119.61 16.74C119.82 14.96 119.43 13.8 118.55 13.12C117.54 12.34 115.87 12.02 113.7 12.02C113.65 12.02 113.6 12.03 113.55 12.03H102.33V12.02C100.62 12.02 99.3599 12.36 98.5899 13.06C98.2699 13.35 98.0299 13.72 97.8499 14.17ZM86.8699 52.6C86.6299 52.37 86.4599 52.07 86.3899 51.74L70.3899 22.94C68.6099 19.97 67.0099 19.9 65.4599 20.82C64.3599 21.47 63.1999 22.53 62.0399 23.59C61.3399 24.23 60.6399 24.87 60.0499 25.36L57.2999 27.63L57.2799 27.64C55.2799 29.25 53.0199 30.12 50.8799 30.29C49.4699 30.41 48.1099 30.23 46.8699 29.76C45.5999 29.28 44.4799 28.51 43.6399 27.46C42.7299 26.33 42.1299 24.89 41.9899 23.19H41.9999C41.9699 22.78 42.0899 22.37 42.3699 22.03L51.1099 11.63C49.2699 11.6 47.6399 11.85 46.1099 12.33C43.7799 13.06 41.5999 14.32 39.2199 15.95C38.9499 16.16 38.5999 16.29 38.2299 16.29H28.1599V35.32L28.1999 47.49H34.0599C34.6199 47.49 35.1599 47.78 35.4499 48.3L42.7299 60.99C43.7899 62.84 44.7299 64.44 45.8999 65.49C46.9999 66.48 48.4399 67.09 50.6599 67.15C51.4899 67.17 52.2899 67.03 53.0399 66.72C53.4999 66.53 53.9599 66.27 54.4099 65.94L49.6899 57.12C49.2699 56.34 49.5699 55.37 50.3499 54.96C51.1299 54.54 52.0999 54.84 52.5099 55.62L57.6399 65.21C59.5499 66.18 61.2799 66.48 62.8299 66.15C64.2499 65.84 65.5899 64.99 66.8499 63.61L59.4599 52.01C58.9899 51.27 59.1999 50.28 59.9499 49.8C60.6899 49.33 61.6799 49.54 62.1599 50.29L69.9399 62.51C71.3099 63.07 72.6199 63.19 73.8699 62.85C75.0599 62.52 76.2599 61.76 77.4499 60.52L70.3999 47.24C69.9799 46.46 70.2799 45.48 71.0699 45.07C71.8499 44.65 72.8299 44.95 73.2399 45.74L80.5399 59.48C81.4899 60.03 82.5899 60.17 83.6399 60C84.5599 59.85 85.4499 59.45 86.1799 58.88C86.8799 58.32 87.4299 57.6 87.6899 56.78C87.9799 55.89 87.9499 54.85 87.4799 53.72L86.8699 52.6ZM88.9899 49.82H94.3299V16.3C94.3299 16.26 94.3299 16.21 94.3399 16.17C94.3399 15.65 94.3699 15.15 94.4399 14.68L88.9999 11.07C88.9699 11.05 88.9399 11.03 88.9099 11.01C88.1999 10.54 87.3499 9.93999 86.4999 9.33999C83.4099 7.17999 80.2399 4.94999 76.8099 4.04999C74.9599 3.55999 72.8199 3.23999 70.6399 3.19999C68.7299 3.15999 66.7899 3.33999 64.9599 3.81999C63.8699 4.09999 62.8099 4.48999 61.8299 5.00999C60.9599 5.46999 60.1499 6.02999 59.4299 6.70999L55.7899 11.04C55.6799 11.26 55.5199 11.44 55.3299 11.59L45.2899 23.55C45.4399 24.31 45.7399 24.95 46.1499 25.47C46.6299 26.06 47.2699 26.5 47.9999 26.78C48.7799 27.07 49.6799 27.18 50.6199 27.1C52.1499 26.97 53.7899 26.34 55.2599 25.16L58.0099 22.89C58.7099 22.31 59.2999 21.77 59.8899 21.24C61.1799 20.06 62.4599 18.89 63.8199 18.08C66.9499 16.21 70.0699 16.15 73.1499 21.32L73.1799 21.37L88.9899 49.82ZM94.9299 53.03H90.6599C91.2399 54.72 91.2099 56.32 90.7499 57.74C90.2799 59.2 89.3599 60.44 88.1799 61.38C87.0299 62.29 85.6299 62.92 84.1599 63.16C82.7299 63.4 81.2299 63.27 79.8299 62.69C78.2099 64.38 76.4999 65.45 74.7199 65.94C72.9299 66.43 71.1199 66.33 69.2899 65.69C67.5499 67.62 65.6299 68.83 63.5099 69.28C61.3499 69.75 59.0599 69.42 56.6299 68.28C55.8699 68.87 55.0799 69.34 54.2499 69.68C53.0799 70.17 51.8499 70.39 50.5599 70.35C47.4799 70.26 45.4099 69.35 43.7599 67.87C42.1799 66.46 41.1299 64.66 39.9299 62.58L33.1199 50.7H27.8399C27.5299 52.23 26.9999 53.53 26.1999 54.57C24.8499 56.31 22.8799 57.23 20.1399 57.17C20.1099 57.17 20.0799 57.17 20.0499 57.17H10.9999C8.71994 57.54 6.76994 56.98 5.23994 55.21C3.87994 53.64 2.95994 51.09 2.55994 47.35C2.54994 47.31 2.54994 47.26 2.53994 47.21L0.159939 17.71C-0.310061 14.53 0.209939 12.28 1.48994 10.74C2.77994 9.18999 4.72994 8.48999 7.11994 8.37999C7.18994 8.36999 7.24994 8.36999 7.31994 8.36999H19.5099V8.37999C21.8099 8.34999 23.7899 8.73999 25.2899 9.70999C26.4999 10.49 27.3699 11.59 27.8099 13.09H37.7399C40.2399 11.41 42.5699 10.09 45.1499 9.27999C47.6899 8.48999 50.3999 8.20999 53.6499 8.59999L56.9999 4.63999C57.0599 4.55999 57.1199 4.48999 57.1999 4.41999C58.1499 3.51999 59.2099 2.77999 60.3499 2.17999C61.5499 1.54999 62.8299 1.06999 64.1699 0.719994C66.2899 0.169994 68.5199 -0.0400059 70.6999 -5.85523e-06C73.1699 0.0499941 75.5699 0.409994 77.6399 0.949994C81.5999 1.99999 85.0199 4.38999 88.3399 6.71999C89.0799 7.23999 89.8199 7.75999 90.6999 8.33999C90.7299 8.35999 90.7599 8.37999 90.7899 8.39999L95.6099 11.62C95.8499 11.28 96.1299 10.97 96.4499 10.69C97.8299 9.44999 99.7999 8.83999 102.34 8.83999V8.82999H113.56C113.6 8.82999 113.65 8.82999 113.69 8.83999C116.56 8.82999 118.9 9.34999 120.52 10.6C122.32 11.99 123.17 14.1 122.81 17.13C122.81 17.16 122.8 17.18 122.8 17.21L119.77 48.52C119.55 51.32 118.8 53.51 117.48 55.03C116.07 56.65 114.12 57.45 111.56 57.34H101.6H101.59C99.8699 57.43 98.3999 56.96 97.1699 55.98C96.2699 55.25 95.5199 54.27 94.9299 53.03ZM13.9999 40.86C15.1999 40.86 16.1699 41.83 16.1699 43.03C16.1699 44.23 15.1999 45.2 13.9999 45.2C12.7999 45.2 11.8299 44.23 11.8299 43.03C11.8299 41.83 12.7999 40.86 13.9999 40.86ZM108.45 40.86C109.65 40.86 110.62 41.83 110.62 43.03C110.62 44.23 109.65 45.2 108.45 45.2C107.25 45.2 106.28 44.23 106.28 43.03C106.28 41.83 107.25 40.86 108.45 40.86ZM24.9499 31.62L24.8899 14.69C24.8899 14.66 24.8899 14.63 24.8899 14.59C24.7199 13.53 24.2599 12.82 23.5799 12.38C22.6499 11.78 21.2599 11.55 19.5499 11.57H19.5299V11.58H7.32994C7.30994 11.58 7.28994 11.58 7.26994 11.58C5.75994 11.65 4.60994 12.01 3.95994 12.79C3.25994 13.62 3.01994 15.06 3.34994 17.29C3.35994 17.34 3.35994 17.38 3.35994 17.43L5.73994 46.96V47.01C6.05994 50.07 6.71994 52.03 7.64994 53.11C8.38994 53.97 9.39994 54.21 10.6099 53.99C10.6999 53.97 10.7999 53.96 10.8899 53.96V53.95H20.0399C20.0999 53.95 20.1599 53.95 20.2099 53.96C21.8299 53.99 22.9499 53.51 23.6499 52.6C24.4699 51.54 24.8699 49.88 24.9299 47.74H24.9199V31.62H24.9499Z" fill="#6C63FF"/>
</svg>
